<svg width="36" height="36" viewBox="0 0 36 36" fill="none" xmlns="http://www.w3.org/2000/svg">
<path d="M29.5312 2.53125H6.46875C5.42446 2.53125 4.42294 2.94609 3.68452 3.68452C2.94609 4.42294 2.53125 5.42446 2.53125 6.46875V29.5312C2.53125 30.5755 2.94609 31.5771 3.68452 32.3155C4.42294 33.0539 5.42446 33.4688 6.46875 33.4688H29.5312C30.5755 33.4688 31.5771 33.0539 32.3155 32.3155C33.0539 31.5771 33.4688 30.5755 33.4688 29.5312V6.46875C33.4688 5.42446 33.0539 4.42294 32.3155 3.68452C31.5771 2.94609 30.5755 2.53125 29.5312 2.53125V2.53125ZM26.6322 13.6406C26.7032 15.4065 26.3976 17.1673 25.7357 18.806C24.5193 21.8493 22.1545 24.3828 19.1263 25.6705C15.2798 27.306 10.68 26.939 7.14684 24.7109C9.49703 24.9827 11.861 24.3319 13.741 22.8956C12.8174 22.8824 11.9208 22.5823 11.1754 22.0368C10.43 21.4913 9.87277 20.7274 9.58085 19.8511C10.2488 19.976 10.9362 19.9503 11.5931 19.776C10.5871 19.573 9.68207 19.0288 9.03104 18.2355C8.38001 17.4422 8.02292 16.4484 8.02013 15.4221C8.64013 15.7608 9.3312 15.9485 10.0373 15.9702C8.12116 14.709 7.48273 12.1047 8.6592 10.1182C9.78701 11.4773 11.1857 12.5866 12.766 13.3751C14.3464 14.1637 16.0737 14.6143 17.8379 14.6981C17.6346 13.8254 17.7042 12.9112 18.0373 12.0793C18.2992 11.4445 18.7039 10.8785 19.22 10.4254C19.7361 9.97231 20.3496 9.64423 21.013 9.46666C21.7919 9.26224 22.6112 9.26876 23.3867 9.48555C24.1622 9.70235 24.8661 10.1216 25.4261 10.7003C26.4223 10.5074 27.3788 10.1474 28.255 9.63555C27.9194 10.6556 27.223 11.5179 26.2965 12.0608C27.1785 11.9585 28.0405 11.726 28.8542 11.3708C28.2546 12.2537 27.5021 13.0224 26.6322 13.6406V13.6406Z" fill="white"/>
</svg>
